# Blender v2.93.0 OBJ File: 'dado8caras.blend'
# www.blender.org
mtllib dado8caras.mtl
o Cube
v -1.694085 -2.140740 2.331663
v -0.451378 -0.050166 2.414320
v -0.030582 -2.111713 3.441579
v -0.433808 -0.049859 2.426043
v -0.602630 -1.816727 0.687356
v -0.439850 -0.046744 2.396952
v 1.060873 -1.787700 1.797273
v -0.422280 -0.046437 2.408675
v -0.030582 -2.111713 3.441579
v -0.433808 -0.049859 2.426043
v 1.060873 -1.787700 1.797273
v -0.422280 -0.046437 2.408675
vt 0.625000 0.000000
vt 0.375000 0.250000
vt 0.375000 0.000000
vt 0.125000 0.500000
vt 0.375000 0.500000
vt 0.375000 0.750000
vt 0.125000 0.750000
vt 0.625000 0.750000
vt 0.625000 0.500000
vt 0.751737 0.337317
vt 0.999548 0.337311
vt 0.868836 0.665309
vt 0.873459 0.331341
vt 0.748919 -0.000007
vt 1.000878 -0.002079
vt 0.373634 0.665940
vt 0.250831 0.332723
vt 0.496149 0.336679
vt 0.875000 0.500000
vt 0.625000 0.750000
vt 0.375000 1.000000
vt 0.375000 0.750000
vt 0.498161 0.333727
vt 0.749370 0.334987
vt 0.627016 0.611471
vt 0.875000 0.750000
vn 0.4347 0.6046 -0.6674
vn -0.1018 0.9867 0.1268
vn -0.5352 0.2867 0.7946
vn -0.7730 0.4761 -0.4193
vn 0.1018 -0.9867 -0.1268
vn 0.7180 0.4155 0.5585
usemtl Material
s off
f 7/1/1 6/2/1 8/3/1
f 6/4/2 2/5/2 4/6/2 8/7/2
f 2/5/3 3/8/3 4/6/3
f 6/2/4 1/9/4 2/5/4
f 7/10/1 5/11/1 6/12/1
f 2/13/3 1/14/3 3/15/3
f 6/16/4 5/17/4 1/18/4
s 1
f 5/19/5 3/8/5 1/9/5
f 9/20/6 12/21/6 10/22/6
f 9/23/6 11/24/6 12/25/6
f 5/19/5 7/26/5 3/8/5
o Cube.001
v -0.169596 -3.841768 1.859459
v -1.700100 -2.133106 2.331102
v -0.153617 -3.841490 1.870121
v -0.036597 -2.104080 3.441019
v -0.159112 -3.838656 1.843663
v -0.608645 -1.809094 0.686796
v -0.143132 -3.838377 1.854325
v 1.054858 -1.780067 1.796713
v -0.153617 -3.841490 1.870121
v -0.036597 -2.104080 3.441019
v -0.143132 -3.838377 1.854325
v 1.054858 -1.780067 1.796713
vt 0.753811 0.004469
vt 0.633199 0.326026
vt 0.505382 0.005332
vt 0.375000 0.500000
vt 0.125000 0.750000
vt 0.125000 0.500000
vt 0.508709 0.932781
vt 0.628012 0.666019
vt 0.746985 0.934399
vt 0.376685 0.001952
vt 0.498309 0.333289
vt 0.250295 0.328804
vt 0.625000 0.000000
vt 0.625000 0.250000
vt 0.375000 0.250000
vt 0.375000 0.750000
vt 0.625000 0.500000
vt 0.625000 0.750000
vt 0.875000 0.500000
vt 0.875000 0.750000
vt 0.240234 0.335938
vt 0.125000 0.664062
vt -0.001953 0.337891
vt 0.375000 0.750000
vt 0.625000 0.750000
vt 0.625000 1.000000
vn 0.5280 -0.3292 -0.7828
vn -0.1018 0.9867 0.1268
vn -0.4432 -0.5846 0.6796
vn -0.6914 -0.4672 -0.5510
vn -0.4432 -0.5846 0.6795
vn 0.1018 -0.9867 -0.1268
vn 0.7843 -0.4443 0.4330
usemtl Material
s off
f 19/27/7 18/28/7 20/29/7
f 14/30/8 20/31/8 18/32/8
f 14/33/9 15/34/9 16/35/9
f 17/36/10 14/37/10 18/38/10
f 19/39/7 17/40/7 18/41/7
f 14/30/8 16/42/8 20/31/8
f 14/30/11 13/43/11 15/44/11
f 17/40/10 13/43/10 14/30/10
s 1
f 13/43/12 17/45/12 19/46/12 15/44/12
f 22/47/13 23/48/13 24/49/13
f 22/50/13 21/51/13 23/52/13
